<svg width="30" height="29" viewBox="0 0 30 29" fill="none" xmlns="http://www.w3.org/2000/svg">
<path fill-rule="evenodd" clip-rule="evenodd" d="M4.36046 1.74419C2.91553 1.74419 1.74419 2.91553 1.74419 4.36046V24.593C1.74419 26.038 2.91553 27.2093 4.36046 27.2093H24.593C26.038 27.2093 27.2093 26.038 27.2093 24.593V13.561C27.2093 13.0794 27.5997 12.689 28.0814 12.689C28.563 12.689 28.9535 13.0794 28.9535 13.561V24.593C28.9535 27.0012 27.0012 28.9535 24.593 28.9535H4.36046C1.95225 28.9535 0 27.0012 0 24.593V4.36046C0 1.95225 1.95225 0 4.36046 0H20.3198C20.8014 0 21.1919 0.390449 21.1919 0.872093C21.1919 1.35374 20.8014 1.74419 20.3198 1.74419H4.36046Z" fill="#49945A"/>
<path fill-rule="evenodd" clip-rule="evenodd" d="M29.7446 1.95601C30.0851 2.29658 30.0851 2.84876 29.7446 3.18934L14.9626 17.9713C14.622 18.3119 14.0698 18.3119 13.7293 17.9713L9.01996 13.262C8.67938 12.9214 8.67938 12.3693 9.01996 12.0287C9.36053 11.6881 9.91271 11.6881 10.2533 12.0287L14.3459 16.1213L28.5112 1.95601C28.8518 1.61544 29.404 1.61544 29.7446 1.95601Z" fill="#49945A"/>
</svg>
