<svg xmlns="http://www.w3.org/2000/svg" viewBox="0 0 29.85 28.8"><defs><style>.cls-1{fill:#49945a;}</style></defs><g id="Layer_2" data-name="Layer 2"><g id="Layer_1-2" data-name="Layer 1"><path class="cls-1" d="M23.82,28.8H5a5,5,0,0,1-5-5V5A5,5,0,0,1,5,0H20.44a.9.9,0,0,1,0,1.8H5A3.19,3.19,0,0,0,1.8,5V23.82A3.19,3.19,0,0,0,5,27H23.82A3.19,3.19,0,0,0,27,23.82V13.76a.9.9,0,0,1,1.8,0V23.82A5,5,0,0,1,23.82,28.8Z"/><path class="cls-1" d="M14.26,18.07a1.1,1.1,0,0,1-.8-.34L8.87,13.14a.88.88,0,0,1,0-1.27.9.9,0,0,1,1.27,0L14.26,16,28.31,1.93a.91.91,0,0,1,1.28,1.28L15.06,17.73A1.12,1.12,0,0,1,14.26,18.07Z"/></g></g></svg>