<svg xmlns="http://www.w3.org/2000/svg" viewBox="0 0 29.33 28.6"><defs><style>.cls-1{fill:#e2b34b;}</style></defs><g id="Layer_2" data-name="Layer 2"><g id="Layer_1-2" data-name="Layer 1"><path class="cls-1" d="M14.73,20.7a.9.9,0,0,1-.9-.9V10.43a.9.9,0,0,1,1.8,0V19.8A.9.9,0,0,1,14.73,20.7Z"/><path class="cls-1" d="M14.73,23.85a1,1,0,0,1-.34-.07,1,1,0,0,1-.49-.49.8.8,0,0,1-.07-.34.88.88,0,0,1,.27-.64.89.89,0,0,1,1-.19,1,1,0,0,1,.3.19.81.81,0,0,1,.19.29.84.84,0,0,1,.07.35.94.94,0,0,1-.26.63.92.92,0,0,1-.64.27Z"/><path class="cls-1" d="M27.43,28.6H1.9A1.9,1.9,0,0,1,.21,25.83L13,1a1.87,1.87,0,0,1,1.69-1,1.89,1.89,0,0,1,1.69,1l12.76,24.8a1.9,1.9,0,0,1-1.69,2.77ZM14.67,1.8a.09.09,0,0,0-.09.05h0L1.81,26.66l.09.14H27.43l.09-.14L14.75,1.85S14.73,1.8,14.67,1.8Z"/></g></g></svg>