<svg xmlns="http://www.w3.org/2000/svg" viewBox="0 0 28.79 28.78"><defs><style>.cls-1{fill:#d6d6d6;}</style></defs><g id="Layer_2" data-name="Layer 2"><g id="Layer_1-2" data-name="Layer 1"><path class="cls-1" d="M14.39,28.78a14.39,14.39,0,1,1,10.19-4.2h0A14.31,14.31,0,0,1,14.39,28.78Zm0-27A12.59,12.59,0,1,0,23.3,23.3h0A12.59,12.59,0,0,0,14.39,1.8Z"/><path class="cls-1" d="M12.89,21.25a.85.85,0,0,1-.63-.26.9.9,0,0,1,0-1.27l5.2-5.21a.28.28,0,0,0,0-.41L12.23,8.86a.9.9,0,0,1,0-1.27.91.91,0,0,1,1.28,0l5.23,5.23a2.11,2.11,0,0,1,0,3L13.53,21A.88.88,0,0,1,12.89,21.25Z"/></g></g></svg>