<svg xmlns="http://www.w3.org/2000/svg" viewBox="0 0 28.79 28.78"><defs><style>.cls-1{fill:#e2b34b;}</style></defs><g id="Layer_2" data-name="Layer 2"><g id="Layer_1-2" data-name="Layer 1"><path class="cls-1" d="M14.39,28.78a14.4,14.4,0,1,1,10.19-4.21h0A14.4,14.4,0,0,1,14.39,28.78Zm0-27A12.58,12.58,0,1,0,23.3,5.47,12.52,12.52,0,0,0,14.39,1.8Z"/><path class="cls-1" d="M14.39,19.28a.9.9,0,0,1-.9-.9v-12a.9.9,0,1,1,1.8,0v12A.9.9,0,0,1,14.39,19.28Z"/><path class="cls-1" d="M14.39,23.28a.86.86,0,0,1-.63-.26.88.88,0,0,1-.27-.64.83.83,0,0,1,.07-.34.84.84,0,0,1,.2-.29,1,1,0,0,1,.29-.2l.16-.05a1,1,0,0,1,.52.05,1.21,1.21,0,0,1,.3.2A.91.91,0,0,1,15,23a1,1,0,0,1-.3.2A.93.93,0,0,1,14.39,23.28Z"/></g></g></svg>