<svg xmlns="http://www.w3.org/2000/svg" width="1080" height="598.919" viewBox="0 0 1080 598.919">
  <g>
    <rect width="1080" height="598.919" fill="none"/>
    <path d="M278.979,252.039c-58.187,40.084-98.978,94.2-98.978,94.2l76.314,51.59s6.639-16.486,6.829-16.946c18.145,37.382,57.064,47.415,78.82,46.887H737.451c22.01.6,61.321-9.3,79.637-46.637.619,1.549,6.592,16.08,6.592,16.08L900,346.175s-41.425-54.181-100.026-94.209c-54-36.874-143.1-80.844-260.906-80.844A457.054,457.054,0,0,0,278.979,252.039Z" fill="#fff"/>
    <polygon points="423.513 292.975 430.117 278.871 345.481 278.871 338.875 292.975 371.645 292.975 337.715 362.025 359.62 362.025 393.558 292.975 423.513 292.975" fill="#e1242a"/>
    <path d="M729.144,339.125c-6.288,8.849-15.2,13.328-19.913,10.013-4.711-3.356-3.413-13.239,2.879-22.1s15.211-13.334,19.923-10.012C736.731,320.38,735.439,330.257,729.144,339.125Zm-74.083-.338c-6.305,8.876-15.214,13.341-19.922,10.026-4.716-3.355-3.423-13.239,2.885-22.135,6.288-8.848,15.2-13.327,19.919-9.992s3.4,13.239-2.882,22.1m-92.033-6.426s4.079-13.76,17.382-19.267c0,0,3.758-1.3,5.778.352,0,0,2.851,2.767-.542,7.813-3.03,4.506-10.289,12.671-18.174,15.411,0,0-7.14,3.1-4.444-4.309M433.8,338.787c-6.3,8.876-15.211,13.341-19.923,10.026-4.707-3.355-3.406-13.239,2.885-22.135,6.292-8.848,15.208-13.327,19.916-9.992s3.413,13.239-2.878,22.1m316.429,10.8s-4.268,1.962-6.115.061-.2-5.439-.2-5.439l17.9-37.6H743.573l-2.78,5.012c-10.655-9.369-30.679-4.525-43.1,8.45-7.154,7.489-11.22,16.337-11.761,24.042a53.558,53.558,0,0,1-9.8,5.142s-4.262,1.948-6.108.04-.207-5.446-.207-5.446l31.765-65.325H683.356l-16.663,32.752c-10.641-9.349-30.668-4.512-43.085,8.463a49.1,49.1,0,0,0-6.376,8.3l.007-.061c-.119.223-.251.453-.372.683-.386.67-.765,1.346-1.1,2-9.911,17.156-22.233,20.017-22.233,20.017-26.045,7.793-29.028-4.965-29.028-4.965,29.183-10.8,40.129-23.556,39.145-33.324-1.008-9.8-14.433-10.29-14.433-10.29-22.057-1.326-41.131,14.1-45.775,29.191a28.119,28.119,0,0,0-.981,13.631c-8.827,4.695-13.9,5.446-13.9,5.446-7.35,2.32-8.253-1.143-9.141-3.3s-4.19-20.931-4.19-20.931l30.969-20.248H527.235l-23.273,14.423c-5.23,2.152-3.2-3.328-3.2-3.328L519.749,278.5H501.518L470.7,340.945c-3.543,2.1-10.672,6.258-15.814,8.308,0,0-4.271,1.948-6.125.04s-.2-5.446-.2-5.446l17.894-37.585H448.227l-2.794,5.012c-10.639-9.349-30.667-4.512-43.082,8.463s-15.59,30.084-7.09,38.195c6.8,6.521,19.01,5.324,29.975-2.083,0,0,2.781-2.395,4.283.426,1.566,2.875,7.844,9.437,22.3,3.727A101.062,101.062,0,0,0,464.2,354.1l-3.792,7.685h18.238l9.126-18.482,7.936-5.046s2.42-1.914,3.408,2.171c0,0,3.928,15.526,5.459,17.562s4.566,6.589,17.376,2.909a221.263,221.263,0,0,0,23.8-8.355c4.286,5.893,12.546,9.925,26.052,9.925a63.423,63.423,0,0,0,40.092-14.511,15.754,15.754,0,0,0,4.628,9.978c6.8,6.521,19,5.324,29.975-2.083,0,0,2.78-2.395,4.292.426,1.553,2.875,7.834,9.437,22.294,3.727a73.193,73.193,0,0,0,14-7.083,14.819,14.819,0,0,0,3.531,5.371c6.8,6.5,19,5.291,29.972-2.1,0,0,2.777-2.375,4.293.419,1.556,2.9,7.83,9.437,22.29,3.734s18.624-10.878,18.624-10.878l-3.656-6.447a56.232,56.232,0,0,1-11.907,6.569" fill="#e1242a"/>
    <path d="M801.3,347.846s-8.625,50.324-64.256,50.324H341.423c-55.615,0-63.449-50.784-63.449-50.784-2.129-13.483.482-22.7,4.627-29.083,40.049-52.739,119.293-123.492,256.286-123.492,138.174,0,218.064,71.783,258.119,124.534C801.63,325.19,803.352,334.8,801.3,347.846ZM539.067,186.091c-220.667,0-337.694,156.546-337.694,156.546l47.984,32.424s5.8-14.518,19.087-35.3a54.069,54.069,0,0,0,.763,8.856c8.48,65.769,72.4,64.206,72.4,64.206H737.867s64.754,1.759,73.227-63.976a51.776,51.776,0,0,0,.717-8.571c13.03,20.267,18.759,34.352,18.759,34.352l47.913-32.072S759.735,186.091,539.067,186.091" fill="#e1242a"/>
  </g>
</svg>
