<svg width="18" height="17" viewBox="0 0 18 17" fill="none" xmlns="http://www.w3.org/2000/svg">
<path d="M13.1038 1.78074C13.3158 1.58647 13.5674 1.43236 13.8443 1.32722C14.1212 1.22208 14.418 1.16797 14.7177 1.16797C15.0174 1.16797 15.3142 1.22208 15.5911 1.32722C15.868 1.43236 16.1196 1.58647 16.3315 1.78074C16.5435 1.97501 16.7116 2.20565 16.8263 2.45947C16.941 2.7133 17 2.98535 17 3.2601C17 3.53484 16.941 3.80689 16.8263 4.06072C16.7116 4.31455 16.5435 4.54518 16.3315 4.73945L5.43807 14.7251L1 15.8346L2.21038 11.7664L13.1038 1.78074Z" stroke="white" stroke-width="2" stroke-linecap="round" stroke-linejoin="round"/>
</svg>
