<?xml version="1.0" standalone="no"?>
<!DOCTYPE svg PUBLIC "-//W3C//DTD SVG 20010904//EN"
 "http://www.w3.org/TR/2001/REC-SVG-20010904/DTD/svg10.dtd">
<svg version="1.0" xmlns="http://www.w3.org/2000/svg"
 width="700.000000pt" height="700.000000pt" viewBox="0 0 700.000000 700.000000"
 preserveAspectRatio="xMidYMid meet">
<metadata>
Created by potrace 1.11, written by Peter Selinger 2001-2013
</metadata>
<g transform="translate(0.000000,700.000000) scale(0.100000,-0.100000)"
fill="#000000" stroke="none">
<path d="M730 6981 c-288 -61 -535 -260 -653 -528 -89 -201 -98 -466 -23 -672
95 -258 303 -461 564 -550 116 -39 159 -46 378 -56 610 -28 1166 -400 1428
-956 55 -118 108 -268 117 -334 0 -2 7 -32 15 -66 32 -138 36 -403 9 -564 -40
-230 -131 -461 -257 -648 -236 -351 -580 -597 -980 -701 -122 -32 -224 -46
-378 -52 -105 -4 -212 -16 -255 -28 -297 -81 -525 -281 -633 -556 -59 -152
-76 -349 -42 -510 75 -365 367 -647 738 -714 74 -14 251 -14 317 -1 357 69
644 338 725 679 19 76 23 118 35 333 10 175 66 396 144 568 204 448 628 804
1102 925 159 41 262 54 414 54 90 0 245 -11 268 -19 6 -2 29 -7 50 -10 59 -8
209 -52 293 -85 625 -249 1051 -852 1063 -1507 2 -117 7 -155 31 -255 74 -304
300 -553 586 -647 119 -39 167 -45 314 -45 98 1 144 6 210 24 166 45 306 125
420 239 59 60 150 179 150 196 0 4 8 19 19 33 50 73 92 239 97 382 4 143 -15
243 -70 373 -34 79 -124 209 -181 260 -11 10 -36 33 -55 51 -89 81 -218 151
-354 190 -82 24 -141 31 -336 41 -228 12 -434 65 -637 164 -401 196 -705 534
-854 952 -32 90 -45 141 -74 281 -27 132 -23 419 9 571 3 15 8 37 10 50 11 52
48 171 76 242 225 566 741 967 1350 1051 14 2 79 6 145 9 183 9 214 13 297 35
161 42 294 122 418 249 221 227 304 527 235 848 -10 49 -58 170 -90 230 -122
227 -331 394 -582 465 -114 33 -333 32 -453 -1 -163 -45 -280 -110 -394 -220
-177 -170 -280 -415 -285 -683 -1 -53 -3 -105 -5 -115 -2 -10 -7 -45 -11 -78
-54 -476 -366 -949 -795 -1206 -158 -95 -384 -184 -526 -208 -32 -6 -69 -12
-82 -15 -73 -16 -354 -24 -417 -12 -11 2 -45 7 -75 11 -89 11 -248 53 -350 92
-608 233 -1035 805 -1075 1438 -3 44 -7 121 -10 170 -20 369 -267 688 -625
808 -101 34 -126 38 -265 42 -89 3 -142 -1 -205 -14z"/>
<path d="M3375 6993 c-273 -53 -454 -161 -608 -361 -26 -33 -47 -64 -47 -67 0
-4 -8 -19 -18 -33 -26 -37 -69 -145 -87 -217 -51 -201 -31 -416 55 -602 116
-249 312 -416 585 -499 80 -24 106 -27 240 -28 163 -1 247 15 370 69 78 35
207 121 267 178 345 328 375 883 68 1242 -175 205 -410 315 -680 320 -69 1
-134 0 -145 -2z"/>
<path d="M796 4418 c-350 -47 -637 -284 -749 -618 -35 -103 -38 -128 -42 -268
-6 -258 84 -482 265 -660 226 -222 543 -313 852 -243 335 76 608 352 685 691
31 139 23 334 -20 470 -74 233 -248 433 -475 545 -145 71 -354 105 -516 83z"/>
<path d="M6038 4424 c-2 -1 -28 -5 -58 -9 -121 -14 -282 -79 -396 -160 -239
-171 -378 -442 -377 -735 0 -122 12 -197 45 -295 160 -465 667 -725 1131 -578
268 84 475 273 585 534 l27 64 0 270 0 270 -29 70 c-60 146 -181 301 -306 393
-143 105 -334 170 -517 176 -57 2 -104 2 -105 0z"/>
<path d="M3330 1805 c-252 -51 -458 -190 -594 -400 -48 -74 -70 -115 -76 -140
-1 -5 -7 -19 -12 -29 -19 -35 -48 -150 -55 -216 -19 -181 6 -335 77 -487 75
-160 179 -281 325 -378 70 -47 203 -110 254 -120 9 -2 39 -9 66 -16 54 -14
248 -18 330 -7 106 14 240 66 344 131 267 168 424 455 423 772 -1 140 -25 248
-83 373 -115 250 -335 435 -596 503 -99 26 -309 33 -403 14z"/>
</g>
</svg>
